<svg width="14" height="14" viewBox="0 0 14 14" fill="none" xmlns="http://www.w3.org/2000/svg">
<path d="M7.00012 12.25C9.89962 12.25 12.2501 9.8995 12.2501 7C12.2501 4.10051 9.89962 1.75 7.00012 1.75C4.10063 1.75 1.75012 4.10051 1.75012 7C1.75012 9.8995 4.10063 12.25 7.00012 12.25Z" stroke="#54B7B4" stroke-linecap="round" stroke-linejoin="round"/>
<path d="M2.04932 5.25H11.9513" stroke="#54B7B4" stroke-linecap="round" stroke-linejoin="round"/>
<path d="M2.04932 8.75H11.9513" stroke="#54B7B4" stroke-linecap="round" stroke-linejoin="round"/>
<path d="M7.00049 12.1092C8.20861 12.1092 9.18799 9.82184 9.18799 7.00018C9.18799 4.17852 8.20861 1.89111 7.00049 1.89111C5.79237 1.89111 4.81299 4.17852 4.81299 7.00018C4.81299 9.82184 5.79237 12.1092 7.00049 12.1092Z" stroke="#54B7B4" stroke-linecap="round" stroke-linejoin="round"/>
</svg>
